<svg width="187" height="197" viewBox="0 0 187 197" fill="none" xmlns="http://www.w3.org/2000/svg">
<path d="M183.883 108.35C182.162 108.35 180.767 109.82 180.767 111.634C180.767 117.073 176.58 121.484 171.417 121.484H124.667C122.945 121.484 121.55 120.013 121.55 118.2C121.55 116.387 122.945 114.917 124.667 114.917H143.367C145.088 114.917 146.483 113.447 146.483 111.634C146.483 109.82 145.088 108.35 143.367 108.35H124.667C122.945 108.35 121.55 106.88 121.55 105.067C121.55 103.254 122.945 101.784 124.667 101.784H143.367C145.088 101.784 146.483 100.313 146.483 98.5002C146.483 96.687 145.088 95.2168 143.367 95.2168H124.667C122.945 95.2168 121.55 93.7467 121.55 91.9335C121.55 90.1203 122.945 88.6502 124.667 88.6502H143.367C145.088 88.6502 146.483 87.1801 146.483 85.3668C146.483 83.5536 145.088 82.0835 143.367 82.0835H124.667C122.945 82.0835 121.55 80.6134 121.55 78.8002C121.55 76.987 122.945 75.5168 124.667 75.5168H152.717C154.438 75.5168 155.833 74.0467 155.833 72.2335C155.833 70.4203 154.438 68.9502 152.717 68.9502H143.367C141.645 68.9502 140.25 67.4801 140.25 65.6668V62.3835C140.25 60.5703 141.645 59.1002 143.367 59.1002H155.833C160.997 59.1002 165.183 63.5106 165.183 68.9502V72.2335C165.183 74.0467 166.579 75.5168 168.3 75.5168H171.417C176.58 75.5168 180.767 79.9272 180.767 85.3668C180.767 87.1801 182.162 88.6502 183.883 88.6502C185.604 88.6502 187 87.1801 187 85.3668C187 76.3008 180.022 68.9502 171.417 68.9502C171.417 59.8841 164.439 52.5335 155.833 52.5335H143.367C138.203 52.5335 134.017 56.9439 134.017 62.3835V62.6128C123.95 50.0277 109.123 42.7637 93.5 42.7637C77.8771 42.7637 63.0501 50.0277 52.9833 62.6128V62.3835C52.9833 56.9439 48.7968 52.5335 43.6333 52.5335H31.1667C22.5608 52.5335 15.5833 59.8841 15.5833 68.9502C6.9775 68.9502 0 76.3008 0 85.3668C0 87.1801 1.3955 88.6502 3.11667 88.6502C4.83783 88.6502 6.23333 87.1801 6.23333 85.3668C6.23333 79.9272 10.4198 75.5168 15.5833 75.5168H18.7C20.4212 75.5168 21.8167 74.0467 21.8167 72.2335V68.9502C21.8167 63.5106 26.0032 59.1002 31.1667 59.1002H43.6333C45.3545 59.1002 46.75 60.5703 46.75 62.3835V65.6668C46.75 67.4801 45.3545 68.9502 43.6333 68.9502H34.2833C32.5622 68.9502 31.1667 70.4203 31.1667 72.2335C31.1667 74.0467 32.5622 75.5168 34.2833 75.5168H62.3333C64.0545 75.5168 65.45 76.987 65.45 78.8002C65.45 80.6134 64.0545 82.0835 62.3333 82.0835H43.6333C41.9122 82.0835 40.5167 83.5536 40.5167 85.3668C40.5167 87.1801 41.9122 88.6502 43.6333 88.6502H62.3333C64.0545 88.6502 65.45 90.1203 65.45 91.9335C65.45 93.7467 64.0545 95.2168 62.3333 95.2168H43.6333C41.9122 95.2168 40.5167 96.687 40.5167 98.5002C40.5167 100.313 41.9122 101.784 43.6333 101.784H62.3333C64.0545 101.784 65.45 103.254 65.45 105.067C65.45 106.88 64.0545 108.35 62.3333 108.35H43.6333C41.9122 108.35 40.5167 109.82 40.5167 111.634C40.5167 113.447 41.9122 114.917 43.6333 114.917H62.3333C64.0545 114.917 65.45 116.387 65.45 118.2C65.45 120.013 64.0545 121.484 62.3333 121.484H15.5833C10.4198 121.484 6.23333 117.073 6.23333 111.634C6.23333 109.82 4.83783 108.35 3.11667 108.35C1.3955 108.35 0 109.82 0 111.634C0 120.7 6.9775 128.05 15.5833 128.05H48.5883C58.2747 144.351 75.2444 154.253 93.5 154.253C111.756 154.253 128.725 144.351 138.412 128.05H171.417C180.022 128.05 187 120.7 187 111.634C187 109.82 185.604 108.35 183.883 108.35ZM93.5 147.75C78.7856 147.75 64.9295 140.451 56.1 128.05H62.3333C67.4968 128.05 71.6833 123.64 71.6833 118.2C71.6788 115.775 70.8235 113.437 69.2834 111.634C72.4579 107.895 72.4579 102.239 69.2834 98.5002C72.4579 94.7615 72.4579 89.1055 69.2834 85.3668C70.8235 83.5633 71.6788 81.2258 71.6833 78.8002C71.6833 73.3606 67.4968 68.9502 62.3333 68.9502H56.1C64.9295 56.5495 78.7856 49.2502 93.5 49.2502C108.214 49.2502 122.07 56.5495 130.9 68.9502H124.667C119.503 68.9502 115.317 73.3606 115.317 78.8002C115.321 81.2258 116.176 83.5633 117.717 85.3668C114.542 89.1055 114.542 94.7615 117.717 98.5002C114.542 102.239 114.542 107.895 117.717 111.634C116.176 113.437 115.321 115.775 115.317 118.2C115.317 123.64 119.503 128.05 124.667 128.05H130.9C122.07 140.451 108.214 147.75 93.5 147.75Z" fill="#979797"/>
<path d="M93.5001 85.3658C96.0629 85.401 98.1279 87.591 98.1447 90.2908C98.1447 92.104 99.5387 93.5741 101.261 93.5741C102.983 93.5741 104.378 92.104 104.378 90.2908C104.366 85.2263 101.217 80.763 96.6168 79.2913V75.5158C96.6168 73.7025 95.2213 72.2324 93.5001 72.2324C91.779 72.2324 90.3835 73.7025 90.3835 75.5158V79.2913C85.2154 80.9393 81.9679 86.3213 82.7485 91.9517C83.5292 97.5805 88.1007 101.76 93.5001 101.782C96.0826 101.782 98.1751 103.987 98.1751 106.707C98.1751 109.428 96.0826 111.632 93.5001 111.632C90.9176 111.632 88.8251 109.428 88.8251 106.707C88.8251 104.894 87.4296 103.424 85.7085 103.424C83.9873 103.424 82.5918 104.894 82.5918 106.707C82.607 111.782 85.7709 116.246 90.3835 117.707V121.482C90.3835 123.296 91.779 124.766 93.5001 124.766C95.2213 124.766 96.6168 123.296 96.6168 121.482V117.707C101.785 116.059 105.032 110.677 104.252 105.047C103.471 99.4177 98.8995 95.2382 93.5001 95.2158C90.9176 95.2158 88.8251 93.0114 88.8251 90.2908C88.8251 87.5701 90.9176 85.3658 93.5001 85.3658Z" fill="#979797"/>
<path d="M93.5 180.583C91.7788 180.583 90.3833 182.053 90.3833 183.866V193.716C90.3833 195.53 91.7788 197 93.5 197C95.2211 197 96.6166 195.53 96.6166 193.716V183.866C96.6166 182.053 95.2211 180.583 93.5 180.583Z" fill="#979797"/>
<path d="M93.5 160.883C91.7788 160.883 90.3833 162.353 90.3833 164.166V170.733C90.3833 172.546 91.7788 174.016 93.5 174.016C95.2211 174.016 96.6166 172.546 96.6166 170.733V164.166C96.6166 162.353 95.2211 160.883 93.5 160.883Z" fill="#979797"/>
<path d="M93.5 16.4167C95.2211 16.4167 96.6166 14.9465 96.6166 13.1333V3.28333C96.6166 1.47013 95.2211 0 93.5 0C91.7788 0 90.3833 1.47013 90.3833 3.28333V13.1333C90.3833 14.9465 91.7788 16.4167 93.5 16.4167Z" fill="#979797"/>
<path d="M93.5 36.1158C95.2211 36.1158 96.6166 34.6456 96.6166 32.8324V26.2658C96.6166 24.4525 95.2211 22.9824 93.5 22.9824C91.7788 22.9824 90.3833 24.4525 90.3833 26.2658V32.8324C90.3833 34.6456 91.7788 36.1158 93.5 36.1158Z" fill="#979797"/>
<path d="M110.642 129.723C100.023 136.127 86.9778 136.127 76.3586 129.723C74.8794 128.908 73.0517 129.466 72.2162 130.989C71.3792 132.512 71.8327 134.46 73.2419 135.404C85.7573 143.111 101.243 143.111 113.759 135.404C115.168 134.46 115.621 132.512 114.784 130.989C113.949 129.466 112.121 128.908 110.642 129.723Z" fill="#979797"/>
<path d="M76.3586 67.2764C86.9778 60.8716 100.023 60.8716 110.642 67.2764C111.117 67.5586 111.654 67.7061 112.2 67.7028C113.301 67.7028 114.32 67.0904 114.88 66.0932C115.299 65.3413 115.416 64.4436 115.206 63.5987C114.996 62.7554 114.475 62.034 113.759 61.5947C101.204 54.0453 85.7969 54.0453 73.2419 61.5947C71.8327 62.539 71.3792 64.4868 72.2162 66.0099C73.0517 67.5329 74.8794 68.0908 76.3586 67.2764V67.2764Z" fill="#979797"/>
<path d="M115.316 36.1169H127.783V45.9669C127.783 47.7801 129.179 49.2502 130.9 49.2502C132.621 49.2502 134.016 47.7801 134.016 45.9669V32.8335C134.016 31.0203 132.621 29.5502 130.9 29.5502H123.451L146.483 7.71635L169.516 29.5502H162.066C160.345 29.5502 158.95 31.0203 158.95 32.8335V45.9669C158.95 47.7801 160.345 49.2502 162.066 49.2502C163.788 49.2502 165.183 47.7801 165.183 45.9669V36.1169H177.65C178.934 36.1137 180.086 35.2784 180.549 34.0151C181.011 32.7502 180.69 31.3153 179.738 30.4031L148.571 0.853095C147.386 -0.273948 145.581 -0.273948 144.395 0.853095L113.229 30.4031C112.276 31.3153 111.955 32.7502 112.417 34.0151C112.88 35.2784 114.032 36.1137 115.316 36.1169Z" fill="#979797"/>
<path d="M65.4506 160.884H52.9839V151.034C52.9839 149.221 51.5884 147.751 49.8672 147.751C48.1461 147.751 46.7506 149.221 46.7506 151.034V164.167C46.7506 165.98 48.1461 167.451 49.8672 167.451H57.3165L34.2839 189.284L11.2513 167.451H18.7006C20.4217 167.451 21.8172 165.98 21.8172 164.167V137.901C21.8172 136.087 20.4217 134.617 18.7006 134.617C16.9794 134.617 15.5839 136.087 15.5839 137.901V160.884H3.11723C1.83282 160.887 0.680814 161.722 0.218183 162.986C-0.244447 164.251 0.0766549 165.685 1.02931 166.598L32.196 196.148C33.3815 197.275 35.1863 197.275 36.3718 196.148L67.5385 166.598C68.4911 165.685 68.8122 164.251 68.3496 162.986C67.887 161.722 66.735 160.887 65.4506 160.884V160.884Z" fill="#979797"/>
</svg>
