<svg width="189" height="189" viewBox="0 0 189 189" fill="none" xmlns="http://www.w3.org/2000/svg">
<path d="M103.359 51.03V44.2969H109.266C110.049 44.2969 110.8 43.9857 111.354 43.4319C111.908 42.8781 112.219 42.127 112.219 41.3438V29.5313C112.219 28.748 111.908 27.9969 111.354 27.4431C110.8 26.8893 110.049 26.5781 109.266 26.5781H29.5312C28.748 26.5781 27.9969 26.8893 27.4431 27.4431C26.8893 27.9969 26.5781 28.748 26.5781 29.5313C26.5781 30.3145 26.8893 31.0656 27.4431 31.6194C27.9969 32.1732 28.748 32.4844 29.5312 32.4844H106.312V38.3906H79.7344C78.9512 38.3906 78.2 38.7018 77.6462 39.2556C77.0924 39.8094 76.7812 40.5605 76.7812 41.3438C76.7812 42.127 77.0924 42.8781 77.6462 43.4319C78.2 43.9857 78.9512 44.2969 79.7344 44.2969H85.6406V51.0005C78.5291 52.2906 71.78 55.101 65.8547 59.2397L59.0625 52.3884C58.5092 51.8384 57.7607 51.5297 56.9805 51.5297C56.2004 51.5297 55.4519 51.8384 54.8986 52.3884L46.5413 60.7163C46.2622 60.9898 46.0402 61.3159 45.8882 61.6758C45.7361 62.0357 45.6569 62.4223 45.6553 62.813C45.6569 63.2037 45.7361 63.5902 45.8882 63.9501C46.0402 64.31 46.2622 64.6362 46.5413 64.9097L53.3925 71.7609C49.9941 76.6441 47.494 82.0943 46.0097 87.8555C45.8766 88.2406 45.8246 88.6492 45.857 89.0554C45.8895 89.4616 46.0057 89.8568 46.1983 90.2159C46.3909 90.575 46.6557 90.8904 46.9762 91.1422C47.2966 91.394 47.6657 91.5768 48.0602 91.679C48.4547 91.7812 48.8661 91.8006 49.2684 91.7361C49.6708 91.6715 50.0555 91.5244 50.3982 91.304C50.741 91.0835 51.0344 90.7945 51.26 90.4552C51.4857 90.1158 51.6386 89.7334 51.7092 89.332C52.4784 86.428 53.537 83.6084 54.8691 80.9156L59.8303 83.8688C60.5117 84.2604 61.3208 84.3652 62.0795 84.1603C62.8382 83.9554 63.4845 83.4575 63.8761 82.7761C64.2677 82.0947 64.3726 81.2856 64.1677 80.5269C63.9628 79.7682 63.4648 79.1219 62.7834 78.7303L57.7927 75.7772C60.994 70.9669 65.1197 66.8412 69.93 63.6398L72.8831 68.6306C73.2747 69.312 73.921 69.81 74.6797 70.0149C75.4384 70.2198 76.2475 70.1149 76.9289 69.7233C77.6103 69.3317 78.1082 68.6854 78.3131 67.9267C78.5181 67.168 78.4132 66.3589 78.0216 65.6775L75.0684 60.6867C80.2073 58.0936 85.8068 56.5382 91.5469 56.1094V62.0156C91.5469 62.7988 91.858 63.55 92.4118 64.1038C92.9656 64.6576 93.7168 64.9688 94.5 64.9688C95.2832 64.9688 96.0344 64.6576 96.5882 64.1038C97.142 63.55 97.4531 62.7988 97.4531 62.0156V56.257C103.212 56.6335 108.842 58.1386 114.02 60.6867L111.067 65.6775C110.675 66.3589 110.571 67.168 110.775 67.9267C110.98 68.6854 111.478 69.3317 112.16 69.7233C112.841 70.1149 113.65 70.2198 114.409 70.0149C115.168 69.81 115.814 69.312 116.205 68.6306L119.159 63.6103C123.949 66.836 128.07 70.9574 131.296 75.7477L126.276 78.7008C125.594 79.0924 125.096 79.7387 124.891 80.4974C124.686 81.2561 124.791 82.0652 125.183 82.7466C125.575 83.428 126.221 83.9259 126.98 84.1308C127.738 84.3357 128.547 84.2308 129.229 83.8392L134.22 80.8861C136.819 86.0541 138.374 91.6837 138.797 97.4531H132.891C132.107 97.4531 131.356 97.7643 130.802 98.3181C130.249 98.8719 129.938 99.623 129.938 100.406C129.938 101.189 130.249 101.941 130.802 102.494C131.356 103.048 132.107 103.359 132.891 103.359H138.797C138.42 109.119 136.915 114.748 134.367 119.926L129.376 116.973C129.039 116.779 128.667 116.654 128.281 116.604C127.895 116.554 127.503 116.58 127.127 116.682C126.752 116.783 126.4 116.958 126.091 117.195C125.783 117.433 125.525 117.729 125.331 118.066C125.137 118.403 125.011 118.776 124.961 119.162C124.911 119.547 124.938 119.939 125.039 120.315C125.141 120.691 125.315 121.043 125.552 121.351C125.79 121.659 126.086 121.918 126.423 122.112L131.444 125.065C128.218 129.855 124.097 133.977 119.306 137.202L116.353 132.182C115.962 131.5 115.315 131.003 114.557 130.798C113.798 130.593 112.989 130.698 112.307 131.089C111.626 131.481 111.128 132.127 110.923 132.886C110.718 133.645 110.823 134.454 111.215 135.135L114.168 140.126C108.954 142.744 103.273 144.3 97.4531 144.703V138.797C97.4531 138.014 97.142 137.263 96.5882 136.709C96.0344 136.155 95.2832 135.844 94.5 135.844C93.7168 135.844 92.9656 136.155 92.4118 136.709C91.858 137.263 91.5469 138.014 91.5469 138.797V144.703C85.7847 144.323 80.1545 142.807 74.9798 140.244L77.933 135.253C78.1269 134.916 78.2524 134.543 78.3025 134.158C78.3525 133.772 78.326 133.38 78.2246 133.004C78.1231 132.628 77.9486 132.276 77.7111 131.968C77.4736 131.66 77.1777 131.401 76.8403 131.207C76.5029 131.013 76.1306 130.888 75.7447 130.838C75.3588 130.788 74.9668 130.814 74.5911 130.916C74.2154 131.017 73.8634 131.192 73.5552 131.429C73.2469 131.667 72.9884 131.963 72.7945 132.3L69.8414 137.291C65.0311 134.089 60.9054 129.964 57.7041 125.153L62.6948 122.2C63.0322 122.006 63.3281 121.748 63.5656 121.44C63.8032 121.131 63.9776 120.779 64.0791 120.404C64.1805 120.028 64.207 119.636 64.157 119.25C64.107 118.864 63.9814 118.492 63.7875 118.155C63.5936 117.817 63.3351 117.521 63.0269 117.284C62.7186 117.046 62.3666 116.872 61.9909 116.77C61.6152 116.669 61.2232 116.642 60.8373 116.692C60.4514 116.742 60.0791 116.868 59.7417 117.062L54.7805 120.015C53.4484 117.322 52.3898 114.503 51.6206 111.599C51.5473 111.207 51.3953 110.834 51.1739 110.502C50.9525 110.17 50.6662 109.887 50.3323 109.669C49.9984 109.451 49.6238 109.303 49.2311 109.233C48.8384 109.164 48.4357 109.175 48.0473 109.266C47.2923 109.467 46.6478 109.959 46.2548 110.634C45.8618 111.309 45.7524 112.113 45.9506 112.868C48.1801 121.611 52.7243 129.591 59.1052 135.969C65.4861 142.347 73.468 146.888 82.2112 149.114C90.9544 151.34 100.136 151.168 108.79 148.618C117.444 146.067 125.251 141.231 131.389 134.619C137.527 128.007 141.771 119.863 143.672 111.044C145.574 102.224 145.063 93.0555 142.195 84.5015C139.327 75.9475 134.206 68.3246 127.372 62.4345C120.538 56.5444 112.243 52.6047 103.359 51.03V51.03ZM91.5469 44.2969H97.4531V50.3508C96.4786 50.3508 95.5041 50.2031 94.5 50.2031C93.4959 50.2031 92.5214 50.2031 91.5469 50.2031V44.2969ZM52.7428 62.813L56.9067 58.6491L61.1887 62.9016C59.7204 64.2172 58.3301 65.6174 57.0248 67.095L52.7428 62.813Z" fill="#979797"/>
<path d="M59.0625 100.406C59.0625 99.623 58.7514 98.8719 58.1976 98.3181C57.6437 97.7643 56.8926 97.4531 56.1094 97.4531H35.4375C34.6543 97.4531 33.9031 97.7643 33.3493 98.3181C32.7955 98.8719 32.4844 99.623 32.4844 100.406C32.4844 101.189 32.7955 101.941 33.3493 102.494C33.9031 103.048 34.6543 103.359 35.4375 103.359H56.1094C56.8926 103.359 57.6437 103.048 58.1976 102.494C58.7514 101.941 59.0625 101.189 59.0625 100.406Z" fill="#979797"/>
<path d="M111.214 83.6913C110.94 83.4145 110.613 83.1948 110.253 83.0449C109.893 82.895 109.507 82.8178 109.118 82.8178C108.728 82.8178 108.342 82.895 107.982 83.0449C107.622 83.1948 107.295 83.4145 107.021 83.6913L98.1615 92.5507C96.9794 91.993 95.6886 91.7038 94.3815 91.7038C93.0745 91.7038 91.7836 91.993 90.6015 92.5507L77.6669 79.6455C77.4021 79.3364 77.0763 79.0853 76.71 78.9081C76.3436 78.7308 75.9445 78.6312 75.5378 78.6155C75.1311 78.5998 74.7255 78.6683 74.3466 78.8168C73.9676 78.9652 73.6235 79.1904 73.3357 79.4782C73.0479 79.766 72.8227 80.1102 72.6742 80.4892C72.5257 80.8681 72.4572 81.2737 72.4729 81.6804C72.4886 82.0871 72.5882 82.4861 72.7655 82.8525C72.9427 83.2189 73.1938 83.5447 73.5029 83.8094L86.4081 96.7146C85.8903 97.8757 85.6284 99.1347 85.6403 100.406C85.6403 102.756 86.5737 105.009 88.2351 106.671C89.8966 108.332 92.15 109.265 94.4997 109.265C96.8493 109.265 99.1027 108.332 100.764 106.671C102.426 105.009 103.359 102.756 103.359 100.406C103.351 99.086 103.049 97.7844 102.473 96.5965L111.332 87.8847C111.602 87.6025 111.812 87.2697 111.952 86.9056C112.092 86.5415 112.158 86.1533 112.147 85.7634C112.136 85.3735 112.048 84.9897 111.888 84.634C111.728 84.2784 111.499 83.958 111.214 83.6913ZM96.5964 102.503C96.3219 102.779 95.9952 102.999 95.6354 103.149C95.2755 103.299 94.8895 103.376 94.4997 103.376C94.1098 103.376 93.7238 103.299 93.364 103.149C93.0041 102.999 92.6775 102.779 92.403 102.503C92.1262 102.228 91.9065 101.902 91.7565 101.542C91.6066 101.182 91.5294 100.796 91.5294 100.406C91.5294 100.016 91.6066 99.6302 91.7565 99.2703C91.9065 98.9104 92.1262 98.5838 92.403 98.3093C92.6775 98.0325 93.0041 97.8128 93.364 97.6629C93.7238 97.5129 94.1098 97.4357 94.4997 97.4357C94.8895 97.4357 95.2755 97.5129 95.6354 97.6629C95.9952 97.8128 96.3219 98.0325 96.5964 98.3093V98.3093C96.8732 98.5838 97.0929 98.9104 97.2428 99.2703C97.3927 99.6302 97.4699 100.016 97.4699 100.406C97.4699 100.796 97.3927 101.182 97.2428 101.542C97.0929 101.902 96.8732 102.228 96.5964 102.503V102.503Z" fill="#979797"/>
<path d="M87.8852 156.279C87.5481 156.084 87.1758 155.957 86.7896 155.907C86.4033 155.856 86.0109 155.882 85.6349 155.984C85.2588 156.085 84.9066 156.26 84.5984 156.498C84.2903 156.737 84.0323 157.034 83.8394 157.372L82.2447 160.148L75.8069 156.516C75.2768 156.212 74.6654 156.08 74.0572 156.138C73.4489 156.196 72.8737 156.442 72.4108 156.84C70.1993 158.67 67.6792 160.09 64.9689 161.034C64.3934 161.242 63.8967 161.624 63.5476 162.126C63.1984 162.629 63.014 163.227 63.0198 163.839V171.281H51.2073V163.839C51.211 163.224 51.0223 162.623 50.6676 162.12C50.3128 161.617 49.8098 161.237 49.2288 161.034C46.8884 160.219 44.6946 159.032 42.7319 157.52C42.2704 157.16 41.7124 156.945 41.1288 156.903C40.5452 156.861 39.9622 156.994 39.4539 157.283L30.5945 162.363L24.6883 152.145L32.7208 147.656C33.2713 147.337 33.7039 146.848 33.954 146.262C34.2042 145.677 34.2584 145.026 34.1088 144.408C33.6686 142.57 33.4505 140.686 33.4591 138.797C33.4601 137.351 33.5886 135.908 33.843 134.485C33.9245 133.908 33.8335 133.32 33.5812 132.794C33.329 132.269 32.9268 131.829 32.4255 131.532L25.9877 127.664L31.8939 117.446L36.5008 120.104C36.8369 120.317 37.2128 120.461 37.6058 120.525C37.9988 120.59 38.4008 120.574 38.7876 120.48C39.1745 120.385 39.5382 120.213 39.8568 119.974C40.1755 119.735 40.4425 119.434 40.6418 119.089C40.8411 118.744 40.9686 118.363 41.0166 117.967C41.0647 117.572 41.0322 117.171 40.9212 116.789C40.8103 116.406 40.6231 116.05 40.3709 115.742C40.1187 115.433 39.8068 115.179 39.4539 114.995L32.2778 110.86C31.6033 110.473 30.8031 110.367 30.0511 110.566C29.2991 110.765 28.656 111.253 28.2616 111.923L19.4022 127.28C19.0147 127.954 18.909 128.754 19.1081 129.506C19.3071 130.258 19.7949 130.901 20.4653 131.296L27.73 135.489C27.6129 136.588 27.5537 137.692 27.5528 138.797C27.5497 140.36 27.6781 141.921 27.9367 143.463L19.0773 148.513C18.4019 148.902 17.9079 149.543 17.7032 150.295C17.4985 151.048 17.5997 151.851 17.9847 152.529L26.8441 167.885C27.0395 168.221 27.2992 168.515 27.6085 168.75C27.9177 168.986 28.2704 169.158 28.6463 169.256C29.0221 169.355 29.4138 169.379 29.7988 169.326C30.1838 169.273 30.5546 169.145 30.8898 168.948L40.6056 163.367C42.0489 164.321 43.5702 165.15 45.1534 165.847V174.234C45.1534 175.018 45.4646 175.769 46.0184 176.322C46.5722 176.876 47.3233 177.187 48.1066 177.187H65.8253C66.6085 177.187 67.3597 176.876 67.9135 176.322C68.4673 175.769 68.7784 175.018 68.7784 174.234V165.847C70.8447 164.936 72.7972 163.787 74.5961 162.422L81.8608 166.615C82.5353 167.003 83.3355 167.108 84.0875 166.909C84.8395 166.71 85.4826 166.223 85.877 165.552L88.9778 160.207C89.3354 159.537 89.4214 158.756 89.218 158.024C89.0145 157.293 88.5372 156.668 87.8852 156.279Z" fill="#979797"/>
<path d="M47.2499 131.562C46.8912 131.412 46.5065 131.334 46.1177 131.333C45.729 131.332 45.3438 131.408 44.9844 131.556C44.625 131.704 44.2983 131.922 44.0232 132.196C43.7481 132.471 43.53 132.797 43.3813 133.157C42.6672 134.951 42.3062 136.866 42.3182 138.797C42.3182 142.713 43.8738 146.469 46.6429 149.238C49.412 152.007 53.1677 153.563 57.0838 153.563C59.1223 153.552 61.1353 153.109 62.99 152.263C63.3778 152.131 63.7337 151.919 64.0351 151.641C64.3365 151.363 64.5767 151.025 64.7405 150.65C64.9043 150.274 64.9881 149.868 64.9865 149.458C64.985 149.048 64.8981 148.643 64.7314 148.269C64.5648 147.894 64.3219 147.558 64.0185 147.283C63.715 147.007 63.3575 146.798 62.9686 146.668C62.5798 146.538 62.1683 146.491 61.7601 146.529C61.352 146.567 60.9562 146.689 60.598 146.889C59.4914 147.382 58.2954 147.644 57.0838 147.656C54.7341 147.656 52.4807 146.723 50.8193 145.062C49.1578 143.4 48.2244 141.147 48.2244 138.797C48.2187 137.64 48.4498 136.495 48.9036 135.431C49.0521 135.068 49.127 134.68 49.124 134.289C49.121 133.897 49.0403 133.51 48.8864 133.15C48.7325 132.79 48.5086 132.464 48.2276 132.192C47.9467 131.919 47.6143 131.705 47.2499 131.562Z" fill="#979797"/>
<path d="M76.7812 11.8125H124.031C124.814 11.8125 125.566 11.5014 126.119 10.9475C126.673 10.3937 126.984 9.64259 126.984 8.85938C126.984 8.07616 126.673 7.32502 126.119 6.7712C125.566 6.21738 124.814 5.90625 124.031 5.90625H76.7812C75.998 5.90625 75.2469 6.21738 74.6931 6.7712C74.1393 7.32502 73.8281 8.07616 73.8281 8.85938C73.8281 9.64259 74.1393 10.3937 74.6931 10.9475C75.2469 11.5014 75.998 11.8125 76.7812 11.8125Z" fill="#979797"/>
<path d="M8.85938 94.5H29.5312C30.3145 94.5 31.0656 94.1889 31.6194 93.6351C32.1732 93.0812 32.4844 92.3301 32.4844 91.5469C32.4844 90.7637 32.1732 90.0125 31.6194 89.4587C31.0656 88.9049 30.3145 88.5938 29.5312 88.5938H8.85938C8.07616 88.5938 7.32502 88.9049 6.7712 89.4587C6.21738 90.0125 5.90625 90.7637 5.90625 91.5469C5.90625 92.3301 6.21738 93.0812 6.7712 93.6351C7.32502 94.1889 8.07616 94.5 8.85938 94.5V94.5Z" fill="#979797"/>
<path d="M20.6719 73.8281H32.4844C33.2676 73.8281 34.0187 73.517 34.5725 72.9632C35.1264 72.4094 35.4375 71.6582 35.4375 70.875C35.4375 70.0918 35.1264 69.3406 34.5725 68.7868C34.0187 68.233 33.2676 67.9219 32.4844 67.9219H20.6719C19.8887 67.9219 19.1375 68.233 18.5837 68.7868C18.0299 69.3406 17.7188 70.0918 17.7188 70.875C17.7188 71.6582 18.0299 72.4094 18.5837 72.9632C19.1375 73.517 19.8887 73.8281 20.6719 73.8281Z" fill="#979797"/>
<path d="M26.5781 47.25H50.2031C50.9863 47.25 51.7375 46.9389 52.2913 46.385C52.8451 45.8312 53.1562 45.0801 53.1562 44.2969C53.1562 43.5137 52.8451 42.7625 52.2913 42.2087C51.7375 41.6549 50.9863 41.3438 50.2031 41.3438H26.5781C25.7949 41.3438 25.0438 41.6549 24.49 42.2087C23.9361 42.7625 23.625 43.5137 23.625 44.2969C23.625 45.0801 23.9361 45.8312 24.49 46.385C25.0438 46.9389 25.7949 47.25 26.5781 47.25V47.25Z" fill="#979797"/>
<path d="M29.5312 177.188H8.85938C8.07616 177.188 7.32502 177.499 6.7712 178.052C6.21738 178.606 5.90625 179.357 5.90625 180.141C5.90625 180.924 6.21738 181.675 6.7712 182.229C7.32502 182.783 8.07616 183.094 8.85938 183.094H29.5312C30.3145 183.094 31.0656 182.783 31.6194 182.229C32.1732 181.675 32.4844 180.924 32.4844 180.141C32.4844 179.357 32.1732 178.606 31.6194 178.052C31.0656 177.499 30.3145 177.188 29.5312 177.188Z" fill="#979797"/>
<path d="M8.85938 112.219H17.7188C18.502 112.219 19.2531 111.908 19.8069 111.354C20.3607 110.8 20.6719 110.049 20.6719 109.266C20.6719 108.482 20.3607 107.731 19.8069 107.177C19.2531 106.624 18.502 106.312 17.7188 106.312H8.85938C8.07616 106.312 7.32502 106.624 6.7712 107.177C6.21738 107.731 5.90625 108.482 5.90625 109.266C5.90625 110.049 6.21738 110.8 6.7712 111.354C7.32502 111.908 8.07616 112.219 8.85938 112.219V112.219Z" fill="#979797"/>
<path d="M153.562 85.6406C152.779 85.6406 152.028 85.9518 151.474 86.5056C150.921 87.0594 150.609 87.8105 150.609 88.5938C150.609 89.377 150.921 90.1281 151.474 90.6819C152.028 91.2357 152.779 91.5469 153.562 91.5469H168.328C169.111 91.5469 169.862 91.2357 170.416 90.6819C170.97 90.1281 171.281 89.377 171.281 88.5938C171.281 87.8105 170.97 87.0594 170.416 86.5056C169.862 85.9518 169.111 85.6406 168.328 85.6406H153.562Z" fill="#979797"/>
<path d="M124.031 159.469H100.406C99.623 159.469 98.8719 159.78 98.3181 160.334C97.7643 160.888 97.4531 161.639 97.4531 162.422C97.4531 163.205 97.7643 163.956 98.3181 164.51C98.8719 165.064 99.623 165.375 100.406 165.375H124.031C124.814 165.375 125.566 165.064 126.119 164.51C126.673 163.956 126.984 163.205 126.984 162.422C126.984 161.639 126.673 160.888 126.119 160.334C125.566 159.78 124.814 159.469 124.031 159.469Z" fill="#979797"/>
<path d="M112.219 171.281H94.5C93.7168 171.281 92.9656 171.592 92.4118 172.146C91.858 172.7 91.5469 173.451 91.5469 174.234C91.5469 175.018 91.858 175.769 92.4118 176.323C92.9656 176.876 93.7168 177.188 94.5 177.188H112.219C113.002 177.188 113.753 176.876 114.307 176.323C114.861 175.769 115.172 175.018 115.172 174.234C115.172 173.451 114.861 172.7 114.307 172.146C113.753 171.592 113.002 171.281 112.219 171.281Z" fill="#979797"/>
<path d="M171.281 126.984H147.656C146.873 126.984 146.122 127.296 145.568 127.849C145.014 128.403 144.703 129.154 144.703 129.938C144.703 130.721 145.014 131.472 145.568 132.026C146.122 132.579 146.873 132.891 147.656 132.891H171.281C172.064 132.891 172.816 132.579 173.369 132.026C173.923 131.472 174.234 130.721 174.234 129.938C174.234 129.154 173.923 128.403 173.369 127.849C172.816 127.296 172.064 126.984 171.281 126.984Z" fill="#979797"/>
<path d="M165.375 144.703H141.75C140.967 144.703 140.216 145.014 139.662 145.568C139.108 146.122 138.797 146.873 138.797 147.656C138.797 148.439 139.108 149.191 139.662 149.744C140.216 150.298 140.967 150.609 141.75 150.609H165.375C166.158 150.609 166.909 150.298 167.463 149.744C168.017 149.191 168.328 148.439 168.328 147.656C168.328 146.873 168.017 146.122 167.463 145.568C166.909 145.014 166.158 144.703 165.375 144.703Z" fill="#979797"/>
<path d="M180.141 109.266H159.469C158.686 109.266 157.934 109.577 157.381 110.131C156.827 110.684 156.516 111.436 156.516 112.219C156.516 113.002 156.827 113.753 157.381 114.307C157.934 114.861 158.686 115.172 159.469 115.172H180.141C180.924 115.172 181.675 114.861 182.229 114.307C182.783 113.753 183.094 113.002 183.094 112.219C183.094 111.436 182.783 110.684 182.229 110.131C181.675 109.577 180.924 109.266 180.141 109.266Z" fill="#979797"/>
<path d="M126.807 47.25L124.976 49.0809C124.7 49.3554 124.48 49.682 124.33 50.0419C124.18 50.4018 124.103 50.7878 124.103 51.1776C124.103 51.5675 124.18 51.9534 124.33 52.3133C124.48 52.6732 124.7 52.9998 124.976 53.2743C125.53 53.8244 126.278 54.1331 127.058 54.1331C127.838 54.1331 128.587 53.8244 129.14 53.2743L132.093 50.3212C132.478 49.9455 132.753 49.4719 132.888 48.9515C133.024 48.4311 133.014 47.8836 132.861 47.3681C131.922 43.8641 131.922 40.1748 132.86 36.6706C133.798 33.1665 135.642 29.9709 138.206 27.405L144.467 21.1443C146.318 19.2913 148.732 18.1058 151.33 17.7744C153.928 17.443 156.562 17.9843 158.819 19.3134L146.564 31.5984C144.528 33.8454 143.434 36.7894 143.508 39.8207C143.583 42.852 144.82 45.7385 146.965 47.8826C149.109 50.0267 151.995 51.2642 155.027 51.3388C158.058 51.4135 161.002 50.3195 163.249 48.2836L175.534 36.0281C176.863 38.2848 177.404 40.9193 177.073 43.5173C176.741 46.1153 175.556 48.5295 173.703 50.3803L167.442 56.6409C164.897 59.1802 161.732 61.0115 158.263 61.9541C154.793 62.8967 151.137 62.9179 147.656 62.0156C147.141 61.8626 146.593 61.8532 146.073 61.9885C145.552 62.1238 145.079 62.3987 144.703 62.7834L141.75 65.7365C141.477 66.0119 141.26 66.3384 141.113 66.6974C140.966 67.0564 140.891 67.4409 140.892 67.8289C140.893 68.2169 140.971 68.6009 141.121 68.9589C141.271 69.3168 141.489 69.6418 141.765 69.9152C142.04 70.1886 142.367 70.4051 142.726 70.5523C143.085 70.6995 143.469 70.7746 143.857 70.7732C144.245 70.7719 144.629 70.6941 144.987 70.5443C145.345 70.3946 145.67 70.1758 145.944 69.9004L147.774 68.0695C152.054 68.9221 156.477 68.708 160.654 67.4462C164.831 66.1844 168.633 63.9136 171.724 60.8343L177.985 54.5737C179.632 52.9281 180.939 50.9739 181.831 48.8229C182.723 46.6719 183.182 44.3662 183.182 42.0377C183.182 39.7092 182.723 37.4035 181.831 35.2525C180.939 33.1014 179.632 31.1473 177.985 29.5017C177.432 28.9516 176.683 28.6429 175.903 28.6429C175.123 28.6429 174.374 28.9516 173.821 29.5017L159.114 44.2968C158.006 45.4051 156.503 46.0277 154.936 46.0277C153.368 46.0277 151.865 45.4051 150.757 44.2968C149.649 43.1886 149.026 41.6855 149.026 40.1182C149.026 38.5509 149.649 37.0477 150.757 35.9395L165.523 21.3215C165.796 21.0456 166.013 20.7183 166.16 20.3585C166.307 19.9987 166.381 19.6134 166.379 19.2248C166.376 18.4501 166.068 17.7077 165.523 17.1576C163.877 15.5102 161.923 14.2033 159.772 13.3116C157.621 12.4199 155.315 11.9609 152.987 11.9609C150.658 11.9609 148.353 12.4199 146.201 13.3116C144.05 14.2033 142.096 15.5102 140.451 17.1576L134.042 23.2706C130.959 26.3651 128.685 30.172 127.423 34.3545C126.161 38.5371 125.95 42.9662 126.807 47.25V47.25Z" fill="#979797"/>
</svg>
