<svg width="192" height="192" viewBox="0 0 192 192" fill="none" xmlns="http://www.w3.org/2000/svg">
<path d="M9 42C9.79565 42 10.5587 41.6839 11.1213 41.1213C11.6839 40.5587 12 39.7956 12 39V21C12 18.6131 12.9482 16.3239 14.636 14.636C16.3239 12.9482 18.6131 12 21 12H81C83.3869 12 85.6761 12.9482 87.364 14.636C89.0518 16.3239 90 18.6131 90 21V57C90 57.7956 90.3161 58.5587 90.8787 59.1213C91.4413 59.6839 92.2044 60 93 60C93.7956 60 94.5587 59.6839 95.1213 59.1213C95.6839 58.5587 96 57.7956 96 57V21C95.9952 17.0232 94.4134 13.2107 91.6013 10.3987C88.7893 7.58665 84.9768 6.00476 81 6H21C17.0232 6.00476 13.2107 7.58665 10.3987 10.3987C7.58665 13.2107 6.00476 17.0232 6 21V39C6 39.7956 6.31607 40.5587 6.87868 41.1213C7.44129 41.6839 8.20435 42 9 42Z" fill="#979797"/>
<path d="M9 131.999H14.658C31.8203 131.991 48.8587 129.093 65.058 123.425C65.4301 123.295 65.773 123.094 66.0672 122.831C66.3614 122.569 66.601 122.252 66.7725 121.897C66.944 121.542 67.0439 121.157 67.0665 120.764C67.0892 120.37 67.0341 119.976 66.9045 119.604C66.7749 119.232 66.5732 118.889 66.3111 118.595C66.049 118.301 65.7314 118.061 65.3767 117.89C65.0219 117.718 64.6368 117.618 64.2435 117.596C63.8501 117.573 63.4561 117.628 63.084 117.758C47.5196 123.206 31.1483 125.992 14.658 125.999H9C8.20435 125.999 7.44129 126.315 6.87868 126.877C6.31607 127.44 6 128.203 6 128.999C6 129.794 6.31607 130.558 6.87868 131.12C7.44129 131.683 8.20435 131.999 9 131.999V131.999Z" fill="#979797"/>
<path d="M123.558 127.063C148.599 106.707 166.74 79.1133 175.5 48.0546L181.815 50.7546C182.334 50.977 182.904 51.0487 183.462 50.9614C184.019 50.8741 184.541 50.6314 184.966 50.2611C185.392 49.8908 185.705 49.408 185.868 48.868C186.032 48.3281 186.04 47.7529 185.892 47.2086L176.892 14.2086C176.778 13.7893 176.574 13.3998 176.294 13.0672C176.014 12.7346 175.665 12.4667 175.272 12.2821C174.879 12.0975 174.45 12.0006 174.015 11.9981C173.58 11.9956 173.151 12.0875 172.755 12.2676L139.755 27.2676C139.226 27.5084 138.778 27.8978 138.467 28.3883C138.155 28.8788 137.992 29.4494 137.998 30.0306C138.005 30.6118 138.18 31.1786 138.502 31.6622C138.825 32.1458 139.281 32.5253 139.815 32.7546L149.949 37.0986C144.11 50.5913 136.279 63.131 126.717 74.2986C126.461 74.598 126.266 74.9449 126.144 75.3195C126.022 75.6941 125.975 76.0891 126.006 76.4819C126.037 76.8747 126.144 77.2576 126.323 77.6088C126.502 77.9599 126.748 78.2725 127.047 78.5286C127.346 78.7846 127.693 78.9792 128.068 79.1012C128.443 79.2232 128.838 79.2703 129.23 79.2396C129.623 79.209 130.006 79.1013 130.357 78.9226C130.708 78.744 131.021 78.498 131.277 78.1986C141.9 65.797 150.464 51.7719 156.645 36.6576C156.945 35.9286 156.946 35.1107 156.648 34.3809C156.35 33.6511 155.777 33.0679 155.052 32.7576L148.425 29.9166L172.032 19.2006L178.47 42.8076L174.687 41.1876C174.289 41.0168 173.859 40.9343 173.426 40.9456C172.993 40.9569 172.568 41.0618 172.179 41.2531C171.791 41.4443 171.448 41.7174 171.175 42.0536C170.902 42.3898 170.705 42.7811 170.598 43.2006C162.054 76.295 142.501 105.496 115.155 126.001H111.822C114.389 123.756 116.447 120.989 117.857 117.885C119.267 114.78 119.998 111.41 120 108.001C120 107.205 119.684 106.442 119.121 105.879C118.559 105.317 117.796 105.001 117 105.001C116.204 105.001 115.441 105.317 114.879 105.879C114.316 106.442 114 107.205 114 108.001C114 112.774 112.104 117.353 108.728 120.728C105.352 124.104 100.774 126.001 96 126.001C91.2261 126.001 86.6477 124.104 83.2721 120.728C79.8964 117.353 78 112.774 78 108.001V96.1356C82.2383 95.6559 86.2604 94.0098 89.619 91.3806C91.7912 93.7809 94.4425 95.6993 97.4018 97.0118C100.361 98.3242 103.563 99.0018 106.8 99.0006H117C117.796 99.0006 118.559 98.6845 119.121 98.1219C119.684 97.5593 120 96.7962 120 96.0006V87.0006C119.994 81.433 117.779 76.0952 113.842 72.1583C109.905 68.2214 104.568 66.0069 99 66.0006H69C68.2043 66.0006 67.4413 66.3166 66.8787 66.8792C66.3161 67.4418 66 68.2049 66 69.0006V72.0006H57C56.2043 72.0006 55.4413 72.3166 54.8787 72.8792C54.3161 73.4419 54 74.2049 54 75.0006V84.9006L43.848 73.0506C43.5667 72.7217 43.2175 72.4575 42.8245 72.2763C42.4314 72.095 42.0038 72.001 41.571 72.0006H21C18.6131 72.0006 16.3239 71.0524 14.636 69.3645C12.9482 67.6767 12 65.3875 12 63.0006V51.0006C12 50.2049 11.6839 49.4418 11.1213 48.8792C10.5587 48.3166 9.79565 48.0006 9 48.0006C8.20435 48.0006 7.44129 48.3166 6.87868 48.8792C6.31607 49.4418 6 50.2049 6 51.0006V63.0006C6.00476 66.9773 7.58665 70.7899 10.3987 73.6019C13.2107 76.4139 17.0232 77.9958 21 78.0006H40.2L54.732 94.9506C55.0123 95.2783 55.3601 95.5418 55.7514 95.723C56.1428 95.9042 56.5687 95.9989 57 96.0006C57.3552 95.9994 57.7074 95.9364 58.041 95.8146C58.6159 95.6018 59.1119 95.2181 59.4621 94.715C59.8124 94.2119 60.0001 93.6136 60 93.0006V78.0006H66V87.0006C66.0116 89.3166 66.5593 91.5984 67.6003 93.6673C68.6413 95.7362 70.1472 97.536 72 98.9256V108.001C72.001 111.594 72.8105 115.141 74.3684 118.379C75.9264 121.617 78.1929 124.462 81 126.706V131.701L78.06 146.401C77.9607 146.887 77.9834 147.39 78.1261 147.865C78.2689 148.34 78.5272 148.772 78.8779 149.123C79.2286 149.473 79.6609 149.732 80.1359 149.874C80.611 150.017 81.114 150.04 81.6 149.941L96 147.061L96.549 147.169L98.886 172.873L96 175.759L93.114 172.873L94.614 156.274C94.6498 155.881 94.608 155.485 94.4909 155.109C94.3738 154.732 94.1837 154.383 93.9314 154.08C93.6792 153.777 93.3697 153.526 93.0207 153.343C92.6718 153.16 92.2901 153.047 91.8975 153.011C91.5049 152.975 91.1091 153.017 90.7327 153.134C90.3563 153.251 90.0066 153.441 89.7036 153.694C89.0918 154.203 88.7074 154.935 88.635 155.728L87 173.728C86.9592 174.167 87.0157 174.61 87.1656 175.024C87.3155 175.439 87.5549 175.816 87.867 176.128L93.867 182.128C94.4296 182.69 95.1925 183.006 95.988 183.006C96.7835 183.006 97.5464 182.69 98.109 182.128L104.109 176.128C104.421 175.816 104.661 175.439 104.81 175.024C104.96 174.61 105.017 174.167 104.976 173.728L102.675 148.396L110.4 149.941C110.886 150.04 111.389 150.017 111.864 149.874C112.339 149.732 112.771 149.473 113.122 149.123C113.473 148.772 113.731 148.34 113.874 147.865C114.017 147.39 114.039 146.887 113.94 146.401L111.06 132.001H117C120.977 132.005 124.789 133.587 127.601 136.399C130.413 139.211 131.995 143.024 132 147.001V183.001C132 183.796 132.316 184.559 132.879 185.122C133.441 185.684 134.204 186.001 135 186.001C135.796 186.001 136.559 185.684 137.121 185.122C137.684 184.559 138 183.796 138 183.001V147.001C137.993 142.581 136.594 138.276 134.001 134.697C131.409 131.118 127.755 128.447 123.558 127.063ZM72 72.0006H99C102.977 72.0053 106.789 73.5872 109.601 76.3992C112.413 79.2112 113.995 83.0238 114 87.0006V93.0006H106.8C103.966 93.0037 101.175 92.3054 98.677 90.9679C96.1786 89.6305 94.0499 87.6955 92.481 85.3356C92.2348 84.9667 91.9099 84.657 91.5297 84.4287C91.1494 84.2005 90.7233 84.0594 90.282 84.0156C89.8405 83.9764 89.3957 84.0334 88.9783 84.1825C88.5609 84.3317 88.1807 84.5695 87.864 84.8796L87.495 85.2486C84.4152 88.3353 80.276 90.1341 75.918 90.2796L74.874 90.3156C74.1869 90.3517 73.5337 90.6253 73.026 91.0896C72.3575 89.8299 72.0054 88.4266 72 87.0006V72.0006ZM105 130.234V130.759L96 139.759L87 130.759V130.234C92.7687 132.589 99.2312 132.589 105 130.234ZM84.825 143.179L85.842 138.079L89.916 142.153L84.825 143.179ZM102.084 142.159L106.158 138.085L107.175 143.185L102.084 142.159Z" fill="#979797"/>
<path d="M74.958 128.772C74.8258 127.988 74.3875 127.288 73.7394 126.826C73.0913 126.365 72.2865 126.18 71.502 126.312C66.6046 127.124 62.1553 129.65 58.9491 133.44C55.7429 137.23 53.9888 142.036 54 147V153.174C44.513 155.039 34.8685 155.985 25.2 156H9C8.20435 156 7.44129 156.316 6.87868 156.879C6.31607 157.441 6 158.204 6 159C6 159.796 6.31607 160.559 6.87868 161.121C7.44129 161.684 8.20435 162 9 162H25.2C34.8634 161.981 44.5044 161.069 54 159.276V183C54 183.796 54.3161 184.559 54.8787 185.121C55.4413 185.684 56.2044 186 57 186C57.7956 186 58.5587 185.684 59.1213 185.121C59.6839 184.559 60 183.796 60 183V147C59.9922 143.455 61.2449 140.023 63.5344 137.317C65.8239 134.611 69.001 132.807 72.498 132.228C73.2825 132.096 73.9823 131.658 74.4436 131.009C74.905 130.361 75.09 129.557 74.958 128.772Z" fill="#979797"/>
<path d="M117 153C116.204 153 115.441 153.316 114.879 153.879C114.316 154.441 114 155.204 114 156V183C114 183.796 114.316 184.559 114.879 185.121C115.441 185.684 116.204 186 117 186C117.796 186 118.559 185.684 119.121 185.121C119.684 184.559 120 183.796 120 183V156C120 155.204 119.684 154.441 119.121 153.879C118.559 153.316 117.796 153 117 153Z" fill="#979797"/>
<path d="M75 153C74.2044 153 73.4413 153.316 72.8787 153.879C72.3161 154.441 72 155.204 72 156V183C72 183.796 72.3161 184.559 72.8787 185.121C73.4413 185.684 74.2044 186 75 186C75.7956 186 76.5587 185.684 77.1213 185.121C77.6839 184.559 78 183.796 78 183V156C78 155.204 77.6839 154.441 77.1213 153.879C76.5587 153.316 75.7956 153 75 153Z" fill="#979797"/>
<path d="M105 108C106.657 108 108 106.657 108 105C108 103.343 106.657 102 105 102C103.343 102 102 103.343 102 105C102 106.657 103.343 108 105 108Z" fill="#979797"/>
<path d="M87 108C88.6569 108 90 106.657 90 105C90 103.343 88.6569 102 87 102C85.3431 102 84 103.343 84 105C84 106.657 85.3431 108 87 108Z" fill="#979797"/>
<path d="M65.9999 36.0014C66.0106 33.4419 65.3662 30.9222 64.1281 28.6821C62.8899 26.4421 61.0991 24.5561 58.9261 23.2036C56.7531 21.8511 54.2702 21.0772 51.7136 20.9555C49.157 20.8337 46.6117 21.3682 44.32 22.508C42.0283 23.6478 40.0664 25.3551 38.621 27.4674C37.1755 29.5797 36.2946 32.0267 36.062 34.5756C35.8295 37.1245 36.253 39.6906 37.2924 42.0295C38.3317 44.3685 39.9523 46.4026 41.9999 47.9384V48.0014C41.2042 48.0014 40.4412 48.3174 39.8786 48.8801C39.3159 49.4427 38.9999 50.2057 38.9999 51.0014C38.9999 51.797 39.3159 52.5601 39.8786 53.1227C40.4412 53.6853 41.2042 54.0014 41.9999 54.0014V57.0014C41.9999 59.3883 42.9481 61.6775 44.6359 63.3653C46.3237 65.0532 48.6129 66.0014 50.9999 66.0014C53.3868 66.0014 55.676 65.0532 57.3638 63.3653C59.0517 61.6775 59.9999 59.3883 59.9999 57.0014V54.0014C60.7955 54.0014 61.5586 53.6853 62.1212 53.1227C62.6838 52.5601 62.9999 51.797 62.9999 51.0014C62.9999 50.2057 62.6838 49.4427 62.1212 48.8801C61.5586 48.3174 60.7955 48.0014 59.9999 48.0014V47.9384C61.8535 46.5468 63.3597 44.7449 64.4007 42.674C65.4416 40.603 65.989 38.3192 65.9999 36.0014V36.0014ZM53.9999 57.0014C53.9999 57.797 53.6838 58.5601 53.1212 59.1227C52.5586 59.6853 51.7955 60.0014 50.9999 60.0014C50.2042 60.0014 49.4412 59.6853 48.8786 59.1227C48.3159 58.5601 47.9999 57.797 47.9999 57.0014V54.0014H53.9999V57.0014ZM55.4999 43.7444C55.0447 44.0072 54.6666 44.3849 54.4033 44.8398C54.1401 45.2947 54.0009 45.8108 53.9999 46.3364V48.0014H47.9999V46.3364C47.9988 45.8108 47.8597 45.2947 47.5964 44.8398C47.3332 44.3849 46.955 44.0072 46.4999 43.7444C45.1327 42.9663 43.996 41.8399 43.2055 40.4798C42.4151 39.1197 41.9991 37.5745 41.9999 36.0014C41.9999 33.6144 42.9481 31.3252 44.6359 29.6374C46.3237 27.9496 48.6129 27.0014 50.9999 27.0014C53.3868 27.0014 55.676 27.9496 57.3638 29.6374C59.0517 31.3252 59.9999 33.6144 59.9999 36.0014C60.0007 37.5745 59.5847 39.1197 58.7942 40.4798C58.0038 41.8399 56.8671 42.9663 55.4999 43.7444Z" fill="#979797"/>
<path d="M72.0001 30.0007C72.7957 30.0006 73.5586 29.6844 74.1211 29.1217L77.1211 26.1217C77.4076 25.845 77.6362 25.514 77.7934 25.1479C77.9506 24.7819 78.0334 24.3883 78.0368 23.9899C78.0403 23.5916 77.9644 23.1966 77.8136 22.8279C77.6627 22.4592 77.4399 22.1242 77.1583 21.8425C76.8766 21.5609 76.5416 21.3381 76.1729 21.1873C75.8043 21.0364 75.4092 20.9605 75.0109 20.964C74.6125 20.9674 74.2189 21.0502 73.8529 21.2074C73.4869 21.3647 73.1558 21.5932 72.8791 21.8797L69.8791 24.8797C69.4597 25.2993 69.174 25.8338 69.0583 26.4156C68.9426 26.9975 69.002 27.6006 69.2291 28.1487C69.4561 28.6968 69.8405 29.1653 70.3337 29.4949C70.8269 29.8246 71.4068 30.0006 72.0001 30.0007Z" fill="#979797"/>
<path d="M84 36C84 35.2044 83.6839 34.4413 83.1213 33.8787C82.5587 33.3161 81.7956 33 81 33H75C74.2044 33 73.4413 33.3161 72.8787 33.8787C72.3161 34.4413 72 35.2044 72 36C72 36.7956 72.3161 37.5587 72.8787 38.1213C73.4413 38.6839 74.2044 39 75 39H81C81.7956 39 82.5587 38.6839 83.1213 38.1213C83.6839 37.5587 84 36.7956 84 36Z" fill="#979797"/>
<path d="M69.8788 47.1203L72.8788 50.1203C73.4446 50.6667 74.2024 50.9691 74.989 50.9623C75.7755 50.9555 76.528 50.64 77.0842 50.0837C77.6404 49.5275 77.9559 48.7751 77.9628 47.9885C77.9696 47.2019 77.6672 46.4441 77.1208 45.8783L74.1208 42.8783C73.555 42.3318 72.7971 42.0294 72.0106 42.0362C71.224 42.0431 70.4715 42.3586 69.9153 42.9148C69.3591 43.471 69.0436 44.2235 69.0367 45.0101C69.0299 45.7967 69.3323 46.5545 69.8788 47.1203Z" fill="#979797"/>
<path d="M32.1212 24.8797L29.1212 21.8797C28.8445 21.5932 28.5135 21.3647 28.1475 21.2074C27.7814 21.0502 27.3878 20.9674 26.9894 20.964C26.5911 20.9605 26.1961 21.0364 25.8274 21.1873C25.4587 21.3381 25.1237 21.5609 24.8421 21.8425C24.5604 22.1242 24.3376 22.4592 24.1868 22.8279C24.0359 23.1966 23.96 23.5916 23.9635 23.9899C23.967 24.3883 24.0497 24.7819 24.2069 25.1479C24.3642 25.514 24.5927 25.845 24.8792 26.1217L27.8792 29.1217C28.445 29.6682 29.2029 29.9706 29.9894 29.9638C30.776 29.9569 31.5285 29.6414 32.0847 29.0852C32.6409 28.529 32.9564 27.7765 32.9633 26.9899C32.9701 26.2033 32.6677 25.4455 32.1212 24.8797V24.8797Z" fill="#979797"/>
<path d="M30 36C30 35.2044 29.6839 34.4413 29.1213 33.8787C28.5587 33.3161 27.7956 33 27 33H21C20.2044 33 19.4413 33.3161 18.8787 33.8787C18.3161 34.4413 18 35.2044 18 36C18 36.7956 18.3161 37.5587 18.8787 38.1213C19.4413 38.6839 20.2044 39 21 39H27C27.7956 39 28.5587 38.6839 29.1213 38.1213C29.6839 37.5587 30 36.7956 30 36Z" fill="#979797"/>
<path d="M27.0001 50.9993C27.7957 50.9991 28.5586 50.6829 29.1211 50.1203L32.1211 47.1203C32.6676 46.5545 32.97 45.7967 32.9631 45.0101C32.9563 44.2235 32.6408 43.471 32.0846 42.9148C31.5283 42.3586 30.7759 42.0431 29.9893 42.0362C29.2027 42.0294 28.4449 42.3318 27.8791 42.8783L24.8791 45.8783C24.4597 46.2978 24.174 46.8323 24.0583 47.4142C23.9426 47.996 24.002 48.5991 24.2291 49.1472C24.4561 49.6953 24.8405 50.1638 25.3337 50.4935C25.8269 50.8231 26.4068 50.9991 27.0001 50.9993Z" fill="#979797"/>
<path d="M159 138C158.204 138 157.441 138.316 156.879 138.879C156.316 139.441 156 140.204 156 141C156 141.796 156.316 142.559 156.879 143.121C157.441 143.684 158.204 144 159 144H165C165.796 144 166.559 143.684 167.121 143.121C167.684 142.559 168 141.796 168 141C168 140.204 167.684 139.441 167.121 138.879C166.559 138.316 165.796 138 165 138H159Z" fill="#979797"/>
<path d="M183 126H141C140.204 126 139.441 126.316 138.879 126.879C138.316 127.441 138 128.204 138 129C138 129.796 138.316 130.559 138.879 131.121C139.441 131.684 140.204 132 141 132H144V141C144.004 144.156 144.838 147.254 146.418 149.986C147.997 152.718 150.267 154.986 153 156.564V168C150.613 168 148.324 168.948 146.636 170.636C144.948 172.324 144 174.613 144 177V183C144 183.796 144.316 184.559 144.879 185.121C145.441 185.684 146.204 186 147 186H177C177.796 186 178.559 185.684 179.121 185.121C179.684 184.559 180 183.796 180 183V177C180 174.613 179.052 172.324 177.364 170.636C175.676 168.948 173.387 168 171 168V156.564C173.733 154.986 176.003 152.718 177.582 149.986C179.162 147.254 179.996 144.156 180 141C180 140.204 179.684 139.441 179.121 138.879C178.559 138.316 177.796 138 177 138C176.204 138 175.441 138.316 174.879 138.879C174.316 139.441 174 140.204 174 141C174 144.183 172.736 147.235 170.485 149.485C168.235 151.736 165.183 153 162 153C158.817 153 155.765 151.736 153.515 149.485C151.264 147.235 150 144.183 150 141V132H183C183.796 132 184.559 131.684 185.121 131.121C185.684 130.559 186 129.796 186 129C186 128.204 185.684 127.441 185.121 126.879C184.559 126.316 183.796 126 183 126ZM174 177V180H150V177C150 176.204 150.316 175.441 150.879 174.879C151.441 174.316 152.204 174 153 174H171C171.796 174 172.559 174.316 173.121 174.879C173.684 175.441 174 176.204 174 177ZM165 158.73V168H159V158.73C160.984 159.09 163.016 159.09 165 158.73V158.73Z" fill="#979797"/>
</svg>
