<svg width="215" height="201" viewBox="0 0 215 201" fill="none" xmlns="http://www.w3.org/2000/svg">
<g clip-path="url(#clip0)">
<path d="M118.008 68.9989C96.5879 46.9706 60.5301 45.6359 37.3249 65.3273C36.2545 66.3295 34.8269 67.3302 33.7548 68.6649L32.3271 71.0018L34.1122 73.0047L34.4695 73.3371C55.5324 95.0314 91.5902 96.3677 114.796 76.6747C115.866 75.6741 117.294 74.6735 118.366 73.3371L120.151 71.0018L118.008 68.9989ZM68.7423 71.0018C68.7423 67.3302 71.955 64.3267 75.8824 64.3267C79.808 64.3267 83.0225 67.3302 83.0225 71.0018C83.0225 74.6735 79.808 77.677 75.8824 77.677C71.955 77.677 68.7423 74.6735 68.7423 71.0018ZM71.2403 58.3181C63.7428 60.655 59.8172 67.9983 61.9578 75.0059C63.3872 79.0117 66.5999 82.3493 71.2403 83.684C60.1728 82.6833 49.4627 78.3435 41.2523 71.0018C49.82 63.6585 60.1728 59.3203 71.2403 58.3181ZM80.5227 83.684C88.0202 81.3486 91.9476 74.0053 89.8052 66.9961C88.3775 62.992 85.1631 59.6544 80.5227 58.3181C91.5902 59.3203 102.3 63.6585 110.511 71.0018C101.943 78.3435 91.5902 82.6833 80.5227 83.684Z" fill="#979797"/>
<path d="M75.8822 14.2637C42.3224 14.2637 15.1914 39.6296 15.1914 71.0025C15.1914 102.375 42.3224 127.741 75.8822 127.741C109.44 127.741 136.573 102.375 136.573 71.0025C136.573 39.6296 109.44 14.2637 75.8822 14.2637ZM75.8822 121.066C46.2497 121.066 22.3315 98.7037 22.3315 71.0025C22.3315 43.2996 46.2497 20.9388 75.8822 20.9388C105.513 20.9388 129.433 43.2996 129.433 71.0025C129.433 98.7037 105.513 121.066 75.8822 121.066Z" fill="#979797"/>
<path d="M197.264 144.428V34.2885C197.264 24.9423 189.409 17.6006 179.414 17.6006H140.143V24.2757H179.414C185.482 24.2757 190.124 28.6139 190.124 34.2885V144.428H197.264Z" fill="#979797"/>
<path d="M18.7612 134.417V167.793C18.7612 177.137 26.6143 184.481 36.6115 184.481H161.563V177.805H36.6115C30.5417 177.805 25.9013 173.466 25.9013 167.793V134.417H18.7612Z" fill="#979797"/>
<path d="M150.853 34.2881H182.983V40.9632H150.853V34.2881Z" fill="#979797"/>
<path d="M157.993 50.9766H182.984V57.6517H157.993V50.9766Z" fill="#979797"/>
<path d="M157.993 67.6641H182.984V74.3392H157.993V67.6641Z" fill="#979797"/>
<path d="M157.993 84.3525H182.984V91.0277H157.993V84.3525Z" fill="#979797"/>
<path d="M157.993 101.04H182.984V107.715H157.993V101.04Z" fill="#979797"/>
<path d="M161.563 117.729H182.983V124.404H161.563V117.729Z" fill="#979797"/>
<path d="M33.042 147.767H129.433V154.442H33.042V147.767Z" fill="#979797"/>
<path d="M33.042 161.117H143.713V167.792H33.042V161.117Z" fill="#979797"/>
<path d="M50.8916 97.7021H100.872V104.377H50.8916V97.7021Z" fill="#979797"/>
<path d="M50.8916 37.627H100.872V44.3021H50.8916V37.627Z" fill="#979797"/>
<path d="M173.344 140.757C171.201 138.754 168.703 137.753 165.846 137.753H163.348L137.643 110.719C161.206 78.6777 152.994 34.9551 118.723 12.5943C84.4498 -9.76812 37.3245 -1.42417 13.7619 30.2828C-9.79902 61.9898 -1.58862 106.046 32.6842 128.407C59.8169 146.097 96.2303 145.095 122.293 125.738L147.283 152.104V154.775C147.283 157.445 148.353 160.114 150.496 161.783L187.624 196.495C194.049 202.502 204.046 202.502 210.472 196.495C216.899 190.487 216.899 181.142 210.472 175.133L173.344 140.757ZM8.0512 71.0019C8.0512 35.9573 38.3966 7.58794 75.8821 7.58794C113.368 7.58794 143.713 35.9573 143.713 71.0019C143.713 106.046 113.368 134.416 75.8821 134.416C38.3966 134.416 8.0512 106.046 8.0512 71.0019V71.0019ZM127.648 121.732C129.433 120.063 131.573 118.062 133.003 116.393L156.564 141.091L150.853 146.097L127.648 121.732ZM199.049 194.492C196.549 194.492 194.406 193.49 192.621 192.155L155.493 157.445C154.779 156.777 154.423 156.11 154.423 155.108V152.438L162.991 144.429H165.846C166.918 144.429 167.631 144.763 168.346 145.429L205.474 180.14C209.044 183.477 209.044 188.818 205.474 192.155C203.689 193.49 201.189 194.492 199.049 194.492V194.492Z" fill="#979797"/>
</g>
<defs>
<clipPath id="clip0">
<rect width="215" height="201" fill="white"/>
</clipPath>
</defs>
</svg>
