<svg width="530" height="913" viewBox="0 0 530 913" fill="none" xmlns="http://www.w3.org/2000/svg">
<path d="M168.449 285.207C65.9251 285.595 100.056 29.4273 -1.71333 83.2041L-1.71332 786C-1.71332 786 36.8011 780.908 160.737 738.862C284.673 696.816 339.276 655.7 390.809 600.779C432.677 556.158 504.835 443.901 420.996 352.124C369.295 295.529 294.385 284.731 168.449 285.207Z" fill="#383838"/>
<g clip-path="url(#clip0)">
<path d="M48.5856 159.596C49.6222 170.869 53.5398 182.049 60.4178 192.032C67.2959 202.015 76.3469 209.658 86.5109 214.643L89.8936 234.815L122.936 221.725C134.69 220.776 146.353 216.947 156.763 209.775L219.8 166.346C251.317 144.632 259.257 101.518 237.543 70.0004C215.829 38.483 172.715 30.543 141.198 52.2571L78.1611 95.6867C67.751 102.859 60.0187 112.392 54.9443 123.038L69.2894 143.859L91.3689 130.12C95.6833 124.615 95.9782 125.875 160.848 80.7795C176.536 69.9715 198.213 73.9644 209.021 89.6511C219.828 105.338 215.837 127.016 200.149 137.824L137.112 181.253C134.688 182.924 132.067 184.308 129.294 185.168L103.2 162.557L69.2888 143.86L48.5856 159.596Z" fill="url(#paint0_linear)"/>
<path d="M99.7184 249.075L36.9598 292.313C5.44369 314.026 -37.6713 306.087 -59.3854 274.57C-81.0995 243.052 -73.1583 199.938 -41.6421 178.225L21.1165 134.987C31.5279 127.814 43.19 123.985 54.9439 123.037C67.4659 121.981 80.0892 124.43 91.3686 130.119C101.533 135.103 110.584 142.747 117.462 152.73C124.34 162.713 128.257 173.893 129.294 185.166C114.869 190.479 98.0771 185.643 88.9399 172.38C79.8027 159.117 63.0111 154.282 48.5858 159.594C45.8133 160.453 43.1928 161.838 40.7673 163.509L-21.9914 206.747C-37.6782 217.555 -41.6706 239.233 -30.8631 254.92C-20.0556 270.606 1.62276 274.599 17.3095 263.791C81.755 218.989 82.195 220.15 86.5104 214.643C97.7906 220.331 110.413 222.78 122.935 221.725C117.862 232.369 110.13 241.903 99.7184 249.075Z" fill="url(#paint1_linear)"/>
</g>
<defs>
<linearGradient id="paint0_linear" x1="60.4164" y1="192.018" x2="237.515" y2="70.0048" gradientUnits="userSpaceOnUse">
<stop stop-color="#285680"/>
<stop offset="1" stop-color="#57A4FF"/>
</linearGradient>
<linearGradient id="paint1_linear" x1="-59.3681" y1="274.543" x2="117.452" y2="152.722" gradientUnits="userSpaceOnUse">
<stop stop-color="#004FAC"/>
<stop offset="1" stop-color="#E5E5E5"/>
</linearGradient>
<clipPath id="clip0">
<rect x="-29.4912" y="0.183594" width="295.56" height="295.56" transform="rotate(10.4349 -29.4912 0.183594)" fill="white"/>
</clipPath>
</defs>
</svg>
